<?xml version="1.0" encoding="UTF-8"?> <svg xmlns="http://www.w3.org/2000/svg" width="60" height="60" viewBox="0 0 60 60" fill="none"> <g clip-path="url(#clip0_36_1434)"> <path d="M37.5 34.25H22.5C22.0359 34.25 21.5908 34.0656 21.2626 33.7374C20.9344 33.4092 20.75 32.9641 20.75 32.5C20.75 32.0359 20.9344 31.5908 21.2626 31.2626C21.5908 30.9344 22.0359 30.75 22.5 30.75H37.5C37.9641 30.75 38.4092 30.9344 38.7374 31.2626C39.0656 31.5908 39.25 32.0359 39.25 32.5C39.25 32.9641 39.0656 33.4092 38.7374 33.7374C38.4092 34.0656 37.9641 34.25 37.5 34.25Z" fill="#1AB248" stroke="white" stroke-width="1.5"></path> <path d="M47.4995 0.75C50.6148 0.753848 53.6013 1.99307 55.8041 4.19588C58.007 6.39879 59.2463 9.38551 59.25 12.5009V14.9995C59.2493 15.9484 59.0486 16.8865 58.6609 17.7526C58.2732 18.6187 57.7073 19.3934 57 20.026L56.75 20.2496V20.585V47.4991C56.7463 50.6145 55.507 53.6012 53.3041 55.8041C51.1012 58.007 48.1145 59.2463 44.9991 59.25H15.0009C11.8855 59.2463 8.89879 58.007 6.69588 55.8041C4.49306 53.6013 3.25384 50.6147 3.25 47.4995V20.585V20.2496L3 20.026C2.29272 19.3934 1.72676 18.6187 1.33907 17.7526L0.654523 18.0591L1.33907 17.7526C0.951411 16.8866 0.75069 15.9486 0.75 14.9997V12.5005C0.753848 9.38523 1.99307 6.39869 4.19588 4.19588C6.39869 1.99307 9.38523 0.753848 12.5005 0.75H47.4995ZM7.5 21.75H6.75V22.5V47.5C6.75 49.688 7.61919 51.7865 9.16637 53.3336C10.7135 54.8808 12.812 55.75 15 55.75H45C47.188 55.75 49.2865 54.8808 50.8336 53.3336C52.3808 51.7865 53.25 49.688 53.25 47.5V22.5V21.75H52.5H7.5ZM6.66637 6.66637C5.11919 8.21354 4.25 10.312 4.25 12.5V15C4.25 15.862 4.59241 16.6886 5.2019 17.2981C5.8114 17.9076 6.63805 18.25 7.5 18.25H52.5C53.362 18.25 54.1886 17.9076 54.7981 17.2981C55.4076 16.6886 55.75 15.862 55.75 15V12.5C55.75 10.312 54.8808 8.21354 53.3336 6.66637C51.7865 5.11919 49.688 4.25 47.5 4.25H12.5C10.312 4.25 8.21354 5.11919 6.66637 6.66637Z" fill="#1AB248" stroke="white" stroke-width="1.5"></path> </g> <defs> <clipPath id="clip0_36_1434"> <rect width="60" height="60" fill="white"></rect> </clipPath> </defs> </svg> 