<?xml version="1.0" encoding="UTF-8"?> <!-- Generated by Pixelmator Pro 3.2.1 --> <svg xmlns="http://www.w3.org/2000/svg" xmlns:xlink="http://www.w3.org/1999/xlink" width="300" height="300" viewBox="0 0 300 300"> <path id="Path" fill="#1ab248" stroke="none" d="M 202.899994 106.199997 C 198.699997 106.199997 194.399994 106.199997 189.899994 106.199997 C 185.600006 106.199997 181.100006 106.199997 176.300003 106.199997 C 174.899994 106.199997 173.800003 107.100006 173.600006 108.399994 C 173.399994 109.300003 173.600006 110.100006 174.100006 110.699997 C 174.600006 111.300003 175.5 111.699997 176.5 111.699997 C 179.600006 111.699997 182.600006 111.699997 185.699997 111.699997 L 189.600006 111.699997 L 193.399994 111.699997 C 196.5 111.699997 199.699997 111.699997 202.800003 111.699997 C 204.5 111.699997 205.600006 110.600006 205.600006 108.899994 C 205.600006 107.300003 204.399994 106.199997 202.899994 106.199997 Z"></path> <path id="path1" fill="#1ab248" stroke="none" d="M 107.199997 195.800003 L 110 192.899994 L 110.400002 193.399994 C 110.599998 193.600006 110.699997 193.800003 110.900002 194 C 111.199997 194.300003 111.400002 194.600006 111.599998 194.899994 C 113.699997 197 115.800003 199.199997 118 201.300003 C 118.300003 201.600006 119.5 202.699997 120.699997 201.899994 C 121.5 201.399994 122.300003 200.399994 122.5 199.600006 C 122.599998 198.899994 122 197.699997 121.400002 197.100006 C 119.699997 195.300003 117.900002 193.600006 116.199997 191.899994 C 115.5 191.199997 114.800003 190.600006 114.099998 189.899994 L 113.699997 189.5 L 114.5 188.600006 C 114.800003 188.300003 115 188.100006 115.199997 187.800003 L 117.599998 185.399994 C 118.900002 184.100006 120.300003 182.699997 121.599998 181.399994 C 122.5 180.5 122.699997 179.600006 122.300003 178.5 C 122.099998 178.100006 121.5 176.600006 120.099998 176.699997 C 119.199997 176.800003 118.099998 177.199997 117.5 177.800003 C 115.699997 179.5 114 181.300003 112.300003 183 C 111.599998 183.699997 111 184.399994 110.300003 185.100006 L 109.900002 185.5 L 109 184.699997 C 108.699997 184.399994 108.5 184.199997 108.300003 184 C 107.599998 183.300003 106.900002 182.600006 106.199997 181.899994 C 104.699997 180.399994 103.199997 178.899994 101.699997 177.399994 C 100.5 176.300003 99 176.300003 97.900002 177.5 C 96.800003 178.600006 96.800003 180.100006 97.900002 181.300003 C 98.300003 181.699997 98.699997 182.100006 99 182.5 L 106 189.300003 L 103.699997 191.600006 C 101.900002 193.399994 100.199997 195.100006 98.5 196.800003 C 98.099998 197.199997 97.699997 197.699997 97.400002 198.100006 C 96.699997 199.199997 97.099998 200.699997 98.199997 201.600006 C 99.300003 202.5 100.699997 202.300003 101.699997 201.300003 C 103.599998 199.5 105.300003 197.699997 107.199997 195.800003 Z"></path> <path id="path2" fill="#1ab248" stroke="none" d="M 202.100006 192.5 C 195.399994 192.5 188.699997 192.5 182.100006 192.5 L 177.100006 192.5 C 176.699997 192.5 176.399994 192.5 176.100006 192.5 C 174.600006 192.699997 173.600006 193.800003 173.600006 195.199997 C 173.600006 196.699997 174.5 197.699997 176 197.899994 C 176.399994 198 176.899994 197.899994 177.300003 197.899994 L 177.399994 197.899994 C 180.5 197.899994 183.600006 197.899994 186.699997 197.899994 L 189.399994 197.899994 L 193.399994 198 C 196.399994 198 199.399994 198 202.399994 198 C 203.600006 198 204.5 197.600006 205.100006 196.899994 C 205.600006 196.300003 205.800003 195.5 205.600006 194.600006 C 205.199997 192.899994 203.5 192.5 202.100006 192.5 Z"></path> <path id="path3" fill="#1ab248" stroke="none" d="M 103.400002 112 L 107.400002 112 L 107.300003 112.600006 C 107.300003 112.899994 107.199997 113.100006 107.199997 113.399994 C 107.099998 113.800003 107.099998 114.199997 107.099998 114.5 C 107.099998 117.5 107.099998 120.5 107.099998 123.5 C 107.099998 124 107.199997 125.600006 108.599998 125.899994 C 109.5 126.100006 110.800003 126 111.5 125.5 C 112.099998 125.100006 112.5 123.800003 112.5 123 C 112.599998 120.600006 112.599998 118.100006 112.5 115.600006 C 112.5 114.600006 112.5 113.699997 112.5 112.699997 L 112.5 112.199997 L 113.699997 112.100006 C 114.099998 112.100006 114.400002 112 114.800003 112 L 118.199997 112 C 120.099998 112 122 112 123.800003 112 C 125 112 125.900002 111.5 126.300003 110.5 C 126.5 110.100006 127.099998 108.600006 126 107.699997 C 125.300003 107.100006 124.199997 106.699997 123.300003 106.600006 C 120.900002 106.5 118.300003 106.600006 115.900002 106.600006 C 114.900002 106.600006 114 106.600006 113 106.600006 L 112.5 106.600006 L 112.5 105.399994 C 112.5 105 112.5 104.699997 112.5 104.399994 C 112.5 103.399994 112.5 102.399994 112.5 101.5 C 112.5 99.399994 112.5 97.199997 112.5 95.100006 C 112.5 93.5 111.400002 92.399994 109.699997 92.399994 C 108.199997 92.399994 107.099998 93.399994 107 95 C 107 95.5 107 96.100006 107 96.600006 L 107.099998 106.399994 L 103.800003 106.399994 C 101.300003 106.399994 98.900002 106.399994 96.5 106.399994 C 95.900002 106.399994 95.300003 106.399994 94.800003 106.5 C 93.5 106.800003 92.800003 108.100006 93 109.5 C 93.199997 110.899994 94.199997 111.800003 95.699997 111.800003 C 98.300003 112.100006 100.800003 112 103.400002 112 Z"></path> <path id="path4" fill="#1ab248" stroke="none" d="M 213.699997 230.899994 L 86.300003 230.899994 C 77.199997 230.899994 69.900002 223.5 69.900002 214.5 L 69.900002 85.600006 C 69.900002 76.5 77.300003 69.199997 86.300003 69.199997 L 213.800003 69.199997 C 222.899994 69.199997 230.199997 76.600006 230.199997 85.600006 L 230.199997 214.399994 C 230.199997 223.5 222.800003 230.899994 213.699997 230.899994 Z M 86.300003 75.199997 C 80.599998 75.199997 76 79.800003 76 85.5 L 76 214.300003 C 76 220 80.599998 224.600006 86.300003 224.600006 L 213.800003 224.600006 C 219.5 224.600006 224.100006 220 224.100006 214.300003 L 224.100006 85.600006 C 224.100006 79.899994 219.5 75.300003 213.800003 75.300003 L 86.300003 75.300003 Z"></path> <path id="path5" fill="#1ab248" stroke="none" d="M 145 72 L 151 72 L 151 228 L 145 228 Z"></path> <path id="path6" fill="#1ab248" stroke="none" d="M 72 149 L 228 149 L 228 155 L 72 155 Z"></path> <path id="path7" fill="#1ab248" stroke="none" d="M 202.100006 177.5 C 195.399994 177.5 188.699997 177.5 182.100006 177.5 L 177.100006 177.5 C 176.699997 177.5 176.399994 177.5 176.100006 177.5 C 174.600006 177.699997 173.600006 178.800003 173.600006 180.199997 C 173.600006 181.699997 174.5 182.699997 176 182.899994 C 176.399994 183 176.899994 182.899994 177.300003 182.899994 L 177.399994 182.899994 C 180.5 182.899994 183.600006 182.899994 186.699997 182.899994 L 189.399994 182.899994 L 193.399994 183 C 196.399994 183 199.399994 183 202.399994 183 C 203.600006 183 204.5 182.600006 205.100006 181.899994 C 205.600006 181.300003 205.800003 180.5 205.600006 179.600006 C 205.199997 177.899994 203.5 177.5 202.100006 177.5 Z"></path> </svg> 