<?xml version="1.0" encoding="UTF-8"?> <svg xmlns="http://www.w3.org/2000/svg" width="80" height="80" viewBox="0 0 80 80" fill="none"> <g clip-path="url(#clip0)"> <path d="M44.8408 56.7135H49.2263C49.763 56.7135 50.1982 57.1487 50.1982 57.6854C50.1982 58.2223 49.7631 58.6573 49.2263 58.6573H44.8408C44.3041 58.6573 43.8689 58.2223 43.8689 57.6854C43.8689 57.1487 44.3041 56.7135 44.8408 56.7135Z" fill="#1AB248" stroke="white" stroke-width="0.4"></path> <mask id="path-2-inside-1" fill="white"> <path d="M75.0392 43.9679L68.6578 41.5065L65.4042 38.2529C65.1953 38.044 64.926 37.9309 64.651 37.9132V35.3243C66.1845 33.6893 67.2761 31.6188 67.7165 29.2863C67.99 29.2987 68.2661 29.2766 68.5384 29.221C70.0976 28.9018 71.2293 27.455 71.2293 25.7813V24.9268C71.2293 23.9585 70.8367 23.0697 70.1973 22.4342C71.2322 16.8061 70.3798 12.2195 67.7214 9.14966C65.15 6.18043 61.0071 4.76121 55.7413 5.04605C50.8763 5.30902 47.7357 7.54747 46.7407 8.36638C46.196 8.43107 45.2682 8.62232 44.3291 9.18576C43.0275 9.9667 41.4761 11.6072 41.4761 14.9873C41.4761 17.9361 41.9474 20.398 42.2886 21.7947C41.1449 22.3519 40.3797 23.5594 40.3797 24.9399V25.7811C40.3797 27.4549 41.5114 28.9016 43.0706 29.2208C43.343 29.2766 43.6192 29.2985 43.8925 29.2861C44.333 31.6187 45.4247 33.6891 46.958 35.3241V37.9131C46.683 37.9307 46.4136 38.0438 46.2049 38.2527L42.9513 41.5064L36.5698 43.9678C36.0178 44.1806 35.4905 44.4567 35.0026 44.7881C34.4673 45.1518 34.3283 45.8806 34.6919 46.4159C34.9186 46.7497 35.2872 46.9293 35.6622 46.9293C35.8889 46.9293 36.118 46.8636 36.3197 46.7267C36.6598 46.4956 37.0278 46.3031 37.4133 46.1543L43.3356 43.87L47.8638 50.6623C48.425 51.5044 49.3247 52.0445 50.3318 52.1442C50.4438 52.1553 50.5558 52.1608 50.6671 52.1608C51.25 52.1608 51.8157 52.0075 52.3163 51.7242L51.3446 73.7662C51.316 74.4127 51.8171 74.9601 52.4638 74.9885C52.4813 74.9893 52.4988 74.9896 52.5163 74.9896C53.1397 74.9896 53.6585 74.4982 53.6862 73.8693L54.588 53.4097H57.0209L57.9227 73.8693C57.9504 74.4984 58.4691 74.9896 59.0926 74.9896C59.1101 74.9896 59.1276 74.9893 59.1451 74.9885C59.7916 74.9601 60.2927 74.4127 60.2643 73.7662L59.2926 51.7242C59.7932 52.0075 60.3587 52.1608 60.9418 52.1608C61.0531 52.1608 61.1651 52.1553 61.2771 52.1442C62.2842 52.0445 63.1837 51.5044 63.7451 50.6623L68.2732 43.87L74.1956 46.1543C75.0262 46.4747 75.7412 46.9857 76.3034 47.6234L72.2517 51.6751C70.7878 53.1391 69.9817 55.0853 69.9817 57.1553V73.8179C69.9817 74.4651 70.5064 74.9898 71.1536 74.9898C71.8008 74.9898 72.3254 74.4651 72.3254 73.8179V57.1553C72.3254 55.7114 72.8878 54.3536 73.9089 53.3325L77.4648 49.7765C77.6077 50.3004 77.6744 50.8512 77.6519 51.4144L76.7442 73.7704C76.718 74.4171 77.2209 74.9626 77.8675 74.989C77.8837 74.9896 77.8998 74.9899 77.9159 74.9899C78.5411 74.9899 79.0605 74.496 79.0859 73.8657L79.9939 51.509C80.1269 48.1928 78.1358 45.1623 75.0392 43.9679ZM46.1866 28.803C45.9799 27.6779 44.938 26.86 43.8135 26.9433C43.7246 26.9497 43.633 26.9435 43.5408 26.9247C43.0749 26.8294 42.7235 26.3377 42.7235 25.7813V24.9397C42.7235 24.3961 43.0867 23.9064 43.5503 23.825C43.9416 23.7563 44.3163 23.8999 44.5533 24.2091C44.7685 24.4896 45.0555 24.6902 45.3832 24.7889C45.8632 24.9339 46.3924 24.8488 46.7993 24.5616C47.5321 24.0443 48.1786 23.4122 48.721 22.6828C49.1072 22.1635 48.9991 21.4294 48.4799 21.0433C47.9604 20.6571 47.2264 20.765 46.8402 21.2844C46.5697 21.6482 46.2641 21.9783 45.9277 22.2705C45.5561 21.9527 45.1221 21.723 44.6569 21.5919C44.3558 20.4385 43.8199 17.9674 43.8199 14.987C43.8199 13.1922 44.3731 11.9311 45.4642 11.2389C46.3157 10.6987 47.2168 10.6772 47.2161 10.677C47.5157 10.677 47.8072 10.559 48.0247 10.3533C48.0533 10.3264 50.9341 7.65294 55.8676 7.38622C60.3835 7.14247 63.8698 8.28247 65.9493 10.6837C68.0453 13.1041 68.7432 16.8199 67.9861 21.4707C67.6721 21.4596 67.3286 21.4833 66.9865 21.5403L65.8856 18.8963C65.6609 18.3569 65.0724 18.0656 64.5071 18.213C64.3982 18.2414 53.5762 20.9849 49.0385 15.3355C48.6333 14.8309 47.8958 14.7503 47.391 15.1556C46.8864 15.5609 46.8058 16.2984 47.2113 16.8031C51.8451 22.5722 61.0395 21.3172 64.1001 20.7052L64.9515 22.7497C65.3176 23.6286 66.2542 24.1086 67.1773 23.891C67.5562 23.8018 67.9182 23.7997 68.0542 23.8266C68.5281 23.921 68.8854 24.3936 68.8854 24.9264V25.7811C68.8854 26.3377 68.534 26.8293 68.0681 26.9246C67.9761 26.9435 67.884 26.9497 67.7954 26.9432C66.6711 26.8613 65.6292 27.6776 65.4223 28.803C64.5698 33.4443 60.5249 36.8131 55.8044 36.8131C51.084 36.8131 47.0391 33.4443 46.1866 28.803ZM51.3852 49.5181C51.088 49.8153 50.7425 49.8298 50.5629 49.812C50.3833 49.7943 50.0472 49.7122 49.8141 49.3625L45.2524 42.52L47.0869 40.6854L54.0901 46.8132L51.3852 49.5181ZM54.6913 51.0661L54.7623 49.4554L55.8043 48.4134L56.8463 49.4554L56.9173 51.0661H54.6913ZM55.8044 45.1989L49.3018 39.509V37.2662C51.1924 38.4685 53.4293 39.1568 55.8044 39.1568C58.1796 39.1568 60.4167 38.4685 62.3073 37.2662V39.509L55.8044 45.1989ZM61.7951 49.3625C61.5618 49.7123 61.2257 49.7943 61.0463 49.812C60.8665 49.8298 60.521 49.8153 60.2238 49.5179L57.519 46.8131L64.5221 40.6853L66.3567 42.5198L61.7951 49.3625Z"></path> </mask> <path d="M75.0392 43.9679L68.6578 41.5065L65.4042 38.2529C65.1953 38.044 64.926 37.9309 64.651 37.9132V35.3243C66.1845 33.6893 67.2761 31.6188 67.7165 29.2863C67.99 29.2987 68.2661 29.2766 68.5384 29.221C70.0976 28.9018 71.2293 27.455 71.2293 25.7813V24.9268C71.2293 23.9585 70.8367 23.0697 70.1973 22.4342C71.2322 16.8061 70.3798 12.2195 67.7214 9.14966C65.15 6.18043 61.0071 4.76121 55.7413 5.04605C50.8763 5.30902 47.7357 7.54747 46.7407 8.36638C46.196 8.43107 45.2682 8.62232 44.3291 9.18576C43.0275 9.9667 41.4761 11.6072 41.4761 14.9873C41.4761 17.9361 41.9474 20.398 42.2886 21.7947C41.1449 22.3519 40.3797 23.5594 40.3797 24.9399V25.7811C40.3797 27.4549 41.5114 28.9016 43.0706 29.2208C43.343 29.2766 43.6192 29.2985 43.8925 29.2861C44.333 31.6187 45.4247 33.6891 46.958 35.3241V37.9131C46.683 37.9307 46.4136 38.0438 46.2049 38.2527L42.9513 41.5064L36.5698 43.9678C36.0178 44.1806 35.4905 44.4567 35.0026 44.7881C34.4673 45.1518 34.3283 45.8806 34.6919 46.4159C34.9186 46.7497 35.2872 46.9293 35.6622 46.9293C35.8889 46.9293 36.118 46.8636 36.3197 46.7267C36.6598 46.4956 37.0278 46.3031 37.4133 46.1543L43.3356 43.87L47.8638 50.6623C48.425 51.5044 49.3247 52.0445 50.3318 52.1442C50.4438 52.1553 50.5558 52.1608 50.6671 52.1608C51.25 52.1608 51.8157 52.0075 52.3163 51.7242L51.3446 73.7662C51.316 74.4127 51.8171 74.9601 52.4638 74.9885C52.4813 74.9893 52.4988 74.9896 52.5163 74.9896C53.1397 74.9896 53.6585 74.4982 53.6862 73.8693L54.588 53.4097H57.0209L57.9227 73.8693C57.9504 74.4984 58.4691 74.9896 59.0926 74.9896C59.1101 74.9896 59.1276 74.9893 59.1451 74.9885C59.7916 74.9601 60.2927 74.4127 60.2643 73.7662L59.2926 51.7242C59.7932 52.0075 60.3587 52.1608 60.9418 52.1608C61.0531 52.1608 61.1651 52.1553 61.2771 52.1442C62.2842 52.0445 63.1837 51.5044 63.7451 50.6623L68.2732 43.87L74.1956 46.1543C75.0262 46.4747 75.7412 46.9857 76.3034 47.6234L72.2517 51.6751C70.7878 53.1391 69.9817 55.0853 69.9817 57.1553V73.8179C69.9817 74.4651 70.5064 74.9898 71.1536 74.9898C71.8008 74.9898 72.3254 74.4651 72.3254 73.8179V57.1553C72.3254 55.7114 72.8878 54.3536 73.9089 53.3325L77.4648 49.7765C77.6077 50.3004 77.6744 50.8512 77.6519 51.4144L76.7442 73.7704C76.718 74.4171 77.2209 74.9626 77.8675 74.989C77.8837 74.9896 77.8998 74.9899 77.9159 74.9899C78.5411 74.9899 79.0605 74.496 79.0859 73.8657L79.9939 51.509C80.1269 48.1928 78.1358 45.1623 75.0392 43.9679ZM46.1866 28.803C45.9799 27.6779 44.938 26.86 43.8135 26.9433C43.7246 26.9497 43.633 26.9435 43.5408 26.9247C43.0749 26.8294 42.7235 26.3377 42.7235 25.7813V24.9397C42.7235 24.3961 43.0867 23.9064 43.5503 23.825C43.9416 23.7563 44.3163 23.8999 44.5533 24.2091C44.7685 24.4896 45.0555 24.6902 45.3832 24.7889C45.8632 24.9339 46.3924 24.8488 46.7993 24.5616C47.5321 24.0443 48.1786 23.4122 48.721 22.6828C49.1072 22.1635 48.9991 21.4294 48.4799 21.0433C47.9604 20.6571 47.2264 20.765 46.8402 21.2844C46.5697 21.6482 46.2641 21.9783 45.9277 22.2705C45.5561 21.9527 45.1221 21.723 44.6569 21.5919C44.3558 20.4385 43.8199 17.9674 43.8199 14.987C43.8199 13.1922 44.3731 11.9311 45.4642 11.2389C46.3157 10.6987 47.2168 10.6772 47.2161 10.677C47.5157 10.677 47.8072 10.559 48.0247 10.3533C48.0533 10.3264 50.9341 7.65294 55.8676 7.38622C60.3835 7.14247 63.8698 8.28247 65.9493 10.6837C68.0453 13.1041 68.7432 16.8199 67.9861 21.4707C67.6721 21.4596 67.3286 21.4833 66.9865 21.5403L65.8856 18.8963C65.6609 18.3569 65.0724 18.0656 64.5071 18.213C64.3982 18.2414 53.5762 20.9849 49.0385 15.3355C48.6333 14.8309 47.8958 14.7503 47.391 15.1556C46.8864 15.5609 46.8058 16.2984 47.2113 16.8031C51.8451 22.5722 61.0395 21.3172 64.1001 20.7052L64.9515 22.7497C65.3176 23.6286 66.2542 24.1086 67.1773 23.891C67.5562 23.8018 67.9182 23.7997 68.0542 23.8266C68.5281 23.921 68.8854 24.3936 68.8854 24.9264V25.7811C68.8854 26.3377 68.534 26.8293 68.0681 26.9246C67.9761 26.9435 67.884 26.9497 67.7954 26.9432C66.6711 26.8613 65.6292 27.6776 65.4223 28.803C64.5698 33.4443 60.5249 36.8131 55.8044 36.8131C51.084 36.8131 47.0391 33.4443 46.1866 28.803ZM51.3852 49.5181C51.088 49.8153 50.7425 49.8298 50.5629 49.812C50.3833 49.7943 50.0472 49.7122 49.8141 49.3625L45.2524 42.52L47.0869 40.6854L54.0901 46.8132L51.3852 49.5181ZM54.6913 51.0661L54.7623 49.4554L55.8043 48.4134L56.8463 49.4554L56.9173 51.0661H54.6913ZM55.8044 45.1989L49.3018 39.509V37.2662C51.1924 38.4685 53.4293 39.1568 55.8044 39.1568C58.1796 39.1568 60.4167 38.4685 62.3073 37.2662V39.509L55.8044 45.1989ZM61.7951 49.3625C61.5618 49.7123 61.2257 49.7943 61.0463 49.812C60.8665 49.8298 60.521 49.8153 60.2238 49.5179L57.519 46.8131L64.5221 40.6853L66.3567 42.5198L61.7951 49.3625Z" fill="#1AB248" stroke="white" stroke-width="0.8" mask="url(#path-2-inside-1)"></path> <mask id="path-3-inside-2" fill="white"> <path d="M37.1634 50.1094L31.4412 47.6118L28.3132 44.4838C28.1037 44.2741 27.8343 44.1616 27.5601 44.1441V42.3005C30.2333 40.5438 32.1896 37.7499 32.8182 34.4206C33.126 34.4344 33.4368 34.4048 33.743 34.3325C35.2426 33.9777 36.3309 32.5406 36.3309 30.9156V30.0612C36.3309 28.874 35.7418 27.8061 34.8291 27.1795C35.0976 26.1161 35.2345 25.0281 35.2345 23.9329C35.2345 19.0779 32.6101 14.8016 28.6543 12.3463C28.6121 8.29428 25.1535 5.00989 20.9061 5.00989C16.6588 5.00989 13.2002 8.29428 13.158 12.3463C9.20233 14.8016 6.57794 19.0781 6.57794 23.9329C6.57794 25.0248 6.71388 26.1097 6.98076 27.1701C6.06857 27.7936 5.48153 28.8665 5.48153 30.074V30.9156C5.48153 32.5406 6.56982 33.9777 8.06936 34.3325C8.37561 34.405 8.68623 34.4344 8.9942 34.4206C9.6228 37.7499 11.5792 40.5438 14.2525 42.3005V44.1441C13.9783 44.1616 13.7089 44.2741 13.4994 44.4838L10.3714 47.6118L4.64934 50.1094C1.73792 51.3804 -0.127709 54.3666 0.00682324 57.5406L0.698857 73.8677C0.725576 74.4974 1.24448 74.99 1.86886 74.99C1.88558 74.99 1.90246 74.9897 1.91933 74.9889C2.56605 74.9616 3.06793 74.4152 3.04058 73.7684L2.34839 57.4412C2.30386 56.3892 2.5773 55.3684 3.09137 54.4898L6.16716 58.1807C7.13919 59.3471 7.67435 60.8256 7.67435 62.3437V73.8181C7.67435 74.4653 8.19904 74.99 8.84623 74.99C9.49342 74.99 10.0181 74.4653 10.0181 73.8181V62.3437C10.0181 60.2784 9.28983 58.2671 7.96764 56.6804L4.69778 52.7565C4.97575 52.5649 5.27122 52.3952 5.587 52.2574L10.5739 50.0805L14.098 55.8007C14.4459 56.3656 15.0213 56.7485 15.6766 56.8517C15.7944 56.8702 15.9125 56.8793 16.0302 56.8793C16.566 56.8793 17.0878 56.6895 17.5016 56.3363L19.7347 54.4309V73.818C19.7347 74.4652 20.2594 74.9899 20.9066 74.9899C21.5538 74.9899 22.0785 74.4652 22.0785 73.818V54.4312L24.3114 56.3367C24.7252 56.6898 25.2471 56.8796 25.7829 56.8796C25.9004 56.8796 26.0186 56.8704 26.1365 56.852C26.7918 56.7488 27.3671 56.3659 27.7151 55.801L31.2391 50.0807L36.226 52.2576C36.5417 52.3954 36.8373 52.5651 37.1152 52.7566L33.8454 56.6806C32.5232 58.2671 31.7949 60.2785 31.7949 62.3439V73.8183C31.7949 74.4655 32.3196 74.9902 32.9668 74.9902C33.614 74.9902 34.1387 74.4655 34.1387 73.8183V62.3439C34.1387 60.8257 34.674 59.3473 35.6459 58.1809L38.7217 54.4899C39.2357 55.3685 39.5092 56.3893 39.4646 57.4413L38.7726 73.7686C38.7453 74.4152 39.2471 74.9616 39.8939 74.9891C39.9107 74.9899 39.9274 74.9902 39.9443 74.9902C40.5687 74.9902 41.0876 74.4977 41.1143 73.8678L41.8064 57.5407C41.9407 54.3668 40.0749 51.3804 37.1634 50.1094ZM20.9064 7.35365C23.3996 7.35365 25.503 8.94412 26.125 11.0991C24.5072 10.4885 22.7469 10.1527 20.9064 10.1527C19.066 10.1527 17.3056 10.4885 15.6878 11.0991C16.3099 8.94412 18.4131 7.35365 20.9064 7.35365ZM11.2884 33.9377C11.0819 32.8122 10.0383 31.9947 8.91545 32.0778C8.81592 32.0848 8.71311 32.0764 8.60936 32.0517C8.16248 31.9459 7.82545 31.4575 7.82545 30.9156V30.074C7.82545 29.5305 8.18873 29.0408 8.65233 28.9594C9.04358 28.8906 9.41811 29.0344 9.65499 29.3433C9.87014 29.6239 10.1572 29.8245 10.4851 29.9236C10.965 30.0686 11.4945 29.9834 11.9011 29.6961C12.6228 29.1867 13.2609 28.5658 13.7978 27.8508C14.1864 27.3333 14.0819 26.5986 13.5644 26.2101C13.0467 25.8215 12.3122 25.9261 11.9236 26.4436C11.6578 26.7975 11.3586 27.1192 11.0295 27.405C10.5281 26.9762 9.91327 26.7078 9.26108 26.6264C9.03655 25.7437 8.9217 24.8411 8.9217 23.9331C8.9217 17.6271 14.298 12.4966 20.9064 12.4966C27.5147 12.4966 32.891 17.627 32.891 23.9331C32.891 24.8393 32.7768 25.7401 32.553 26.6212C32.2446 26.6458 31.9312 26.6962 31.641 26.7715L30.7601 26.0472C30.3174 25.6831 29.7602 25.5009 29.1963 25.5345C27.4738 25.6362 18.6522 25.8692 14.1263 20.4526C13.7113 19.956 12.9723 19.8898 12.4756 20.3048C11.9789 20.7198 11.9128 21.4589 12.3278 21.9554C14.56 24.6268 17.8339 26.4333 22.0585 27.3245C25.293 28.0069 28.1683 27.9406 29.2949 27.8764L30.6693 29.0065C31.0476 29.3176 31.578 29.3615 32.0016 29.115C32.2004 29.0067 32.866 28.9033 33.1565 28.9612C33.6304 29.0555 33.9876 29.5283 33.9876 30.0612V30.9156C33.9876 31.4576 33.6505 31.9461 33.2037 32.0517C33.1001 32.0762 32.9971 32.0851 32.8976 32.0777C31.7754 31.9961 30.7312 32.8122 30.5244 33.9375C29.6719 38.5789 25.6271 41.9477 20.9066 41.9477C16.1859 41.9477 12.1409 38.5789 11.2884 33.9377ZM16.0472 54.4965L12.5225 48.7752L14.3281 46.9696L19.181 51.8224L16.0472 54.4965ZM20.9064 50.2332L16.5964 45.9232V43.4988C17.9419 44.011 19.3958 44.2914 20.9064 44.2914C22.4171 44.2914 23.871 44.011 25.2165 43.4989V45.9232L20.9064 50.2332ZM25.7657 54.4965L22.6319 51.8224L27.4847 46.9696L29.2904 48.7752L25.7657 54.4965Z"></path> </mask> <path d="M37.1634 50.1094L31.4412 47.6118L28.3132 44.4838C28.1037 44.2741 27.8343 44.1616 27.5601 44.1441V42.3005C30.2333 40.5438 32.1896 37.7499 32.8182 34.4206C33.126 34.4344 33.4368 34.4048 33.743 34.3325C35.2426 33.9777 36.3309 32.5406 36.3309 30.9156V30.0612C36.3309 28.874 35.7418 27.8061 34.8291 27.1795C35.0976 26.1161 35.2345 25.0281 35.2345 23.9329C35.2345 19.0779 32.6101 14.8016 28.6543 12.3463C28.6121 8.29428 25.1535 5.00989 20.9061 5.00989C16.6588 5.00989 13.2002 8.29428 13.158 12.3463C9.20233 14.8016 6.57794 19.0781 6.57794 23.9329C6.57794 25.0248 6.71388 26.1097 6.98076 27.1701C6.06857 27.7936 5.48153 28.8665 5.48153 30.074V30.9156C5.48153 32.5406 6.56982 33.9777 8.06936 34.3325C8.37561 34.405 8.68623 34.4344 8.9942 34.4206C9.6228 37.7499 11.5792 40.5438 14.2525 42.3005V44.1441C13.9783 44.1616 13.7089 44.2741 13.4994 44.4838L10.3714 47.6118L4.64934 50.1094C1.73792 51.3804 -0.127709 54.3666 0.00682324 57.5406L0.698857 73.8677C0.725576 74.4974 1.24448 74.99 1.86886 74.99C1.88558 74.99 1.90246 74.9897 1.91933 74.9889C2.56605 74.9616 3.06793 74.4152 3.04058 73.7684L2.34839 57.4412C2.30386 56.3892 2.5773 55.3684 3.09137 54.4898L6.16716 58.1807C7.13919 59.3471 7.67435 60.8256 7.67435 62.3437V73.8181C7.67435 74.4653 8.19904 74.99 8.84623 74.99C9.49342 74.99 10.0181 74.4653 10.0181 73.8181V62.3437C10.0181 60.2784 9.28983 58.2671 7.96764 56.6804L4.69778 52.7565C4.97575 52.5649 5.27122 52.3952 5.587 52.2574L10.5739 50.0805L14.098 55.8007C14.4459 56.3656 15.0213 56.7485 15.6766 56.8517C15.7944 56.8702 15.9125 56.8793 16.0302 56.8793C16.566 56.8793 17.0878 56.6895 17.5016 56.3363L19.7347 54.4309V73.818C19.7347 74.4652 20.2594 74.9899 20.9066 74.9899C21.5538 74.9899 22.0785 74.4652 22.0785 73.818V54.4312L24.3114 56.3367C24.7252 56.6898 25.2471 56.8796 25.7829 56.8796C25.9004 56.8796 26.0186 56.8704 26.1365 56.852C26.7918 56.7488 27.3671 56.3659 27.7151 55.801L31.2391 50.0807L36.226 52.2576C36.5417 52.3954 36.8373 52.5651 37.1152 52.7566L33.8454 56.6806C32.5232 58.2671 31.7949 60.2785 31.7949 62.3439V73.8183C31.7949 74.4655 32.3196 74.9902 32.9668 74.9902C33.614 74.9902 34.1387 74.4655 34.1387 73.8183V62.3439C34.1387 60.8257 34.674 59.3473 35.6459 58.1809L38.7217 54.4899C39.2357 55.3685 39.5092 56.3893 39.4646 57.4413L38.7726 73.7686C38.7453 74.4152 39.2471 74.9616 39.8939 74.9891C39.9107 74.9899 39.9274 74.9902 39.9443 74.9902C40.5687 74.9902 41.0876 74.4977 41.1143 73.8678L41.8064 57.5407C41.9407 54.3668 40.0749 51.3804 37.1634 50.1094ZM20.9064 7.35365C23.3996 7.35365 25.503 8.94412 26.125 11.0991C24.5072 10.4885 22.7469 10.1527 20.9064 10.1527C19.066 10.1527 17.3056 10.4885 15.6878 11.0991C16.3099 8.94412 18.4131 7.35365 20.9064 7.35365ZM11.2884 33.9377C11.0819 32.8122 10.0383 31.9947 8.91545 32.0778C8.81592 32.0848 8.71311 32.0764 8.60936 32.0517C8.16248 31.9459 7.82545 31.4575 7.82545 30.9156V30.074C7.82545 29.5305 8.18873 29.0408 8.65233 28.9594C9.04358 28.8906 9.41811 29.0344 9.65499 29.3433C9.87014 29.6239 10.1572 29.8245 10.4851 29.9236C10.965 30.0686 11.4945 29.9834 11.9011 29.6961C12.6228 29.1867 13.2609 28.5658 13.7978 27.8508C14.1864 27.3333 14.0819 26.5986 13.5644 26.2101C13.0467 25.8215 12.3122 25.9261 11.9236 26.4436C11.6578 26.7975 11.3586 27.1192 11.0295 27.405C10.5281 26.9762 9.91327 26.7078 9.26108 26.6264C9.03655 25.7437 8.9217 24.8411 8.9217 23.9331C8.9217 17.6271 14.298 12.4966 20.9064 12.4966C27.5147 12.4966 32.891 17.627 32.891 23.9331C32.891 24.8393 32.7768 25.7401 32.553 26.6212C32.2446 26.6458 31.9312 26.6962 31.641 26.7715L30.7601 26.0472C30.3174 25.6831 29.7602 25.5009 29.1963 25.5345C27.4738 25.6362 18.6522 25.8692 14.1263 20.4526C13.7113 19.956 12.9723 19.8898 12.4756 20.3048C11.9789 20.7198 11.9128 21.4589 12.3278 21.9554C14.56 24.6268 17.8339 26.4333 22.0585 27.3245C25.293 28.0069 28.1683 27.9406 29.2949 27.8764L30.6693 29.0065C31.0476 29.3176 31.578 29.3615 32.0016 29.115C32.2004 29.0067 32.866 28.9033 33.1565 28.9612C33.6304 29.0555 33.9876 29.5283 33.9876 30.0612V30.9156C33.9876 31.4576 33.6505 31.9461 33.2037 32.0517C33.1001 32.0762 32.9971 32.0851 32.8976 32.0777C31.7754 31.9961 30.7312 32.8122 30.5244 33.9375C29.6719 38.5789 25.6271 41.9477 20.9066 41.9477C16.1859 41.9477 12.1409 38.5789 11.2884 33.9377ZM16.0472 54.4965L12.5225 48.7752L14.3281 46.9696L19.181 51.8224L16.0472 54.4965ZM20.9064 50.2332L16.5964 45.9232V43.4988C17.9419 44.011 19.3958 44.2914 20.9064 44.2914C22.4171 44.2914 23.871 44.011 25.2165 43.4989V45.9232L20.9064 50.2332ZM25.7657 54.4965L22.6319 51.8224L27.4847 46.9696L29.2904 48.7752L25.7657 54.4965Z" fill="#1AB248" stroke="white" stroke-width="0.8" mask="url(#path-3-inside-2)"></path> <path d="M13.2319 61.8824H16.521C17.0577 61.8824 17.4929 62.3175 17.4929 62.8542C17.4929 63.391 17.0577 63.8261 16.521 63.8261H13.2319C12.6952 63.8261 12.2601 63.391 12.2601 62.8542C12.2601 62.3175 12.6952 61.8824 13.2319 61.8824Z" fill="#1AB248" stroke="white" stroke-width="0.4"></path> </g> <defs> <clipPath id="clip0"> <rect width="80" height="80" fill="white"></rect> </clipPath> </defs> </svg> 