<?xml version="1.0" encoding="UTF-8"?> <svg xmlns="http://www.w3.org/2000/svg" width="83" height="83" viewBox="0 0 83 83" fill="none"> <path d="M40.2569 49.9384H17.6375C17.3895 49.9384 17.1518 49.8399 16.9765 49.6646C16.8012 49.4893 16.7027 49.2516 16.7027 49.0037C16.7027 48.7557 16.8012 48.518 16.9765 48.3427C17.1518 48.1674 17.3895 48.0689 17.6375 48.0689H40.2569C40.5048 48.0689 40.7426 48.1674 40.9179 48.3427C41.0932 48.518 41.1917 48.7557 41.1917 49.0037C41.1917 49.2516 41.0932 49.4893 40.9179 49.6646C40.7426 49.8399 40.5048 49.9384 40.2569 49.9384Z" fill="#1AB248" stroke="white" stroke-width="0.4"></path> <path d="M35.5559 54.3752L35.6974 54.2337L35.5559 54.3752C35.7312 54.5505 35.8297 54.7882 35.8297 55.0361C35.8297 55.284 35.7312 55.5218 35.5559 55.6971L35.6974 55.8385L35.5559 55.6971C35.3806 55.8724 35.1429 55.9709 34.895 55.9709H17.6375C17.3895 55.9709 17.1518 55.8724 16.9765 55.6971C16.8012 55.5218 16.7027 55.284 16.7027 55.0361C16.7027 54.7882 16.8012 54.5505 16.9765 54.3752C17.1518 54.1999 17.3895 54.1014 17.6375 54.1014H34.895C35.1429 54.1014 35.3806 54.1999 35.5559 54.3752Z" fill="#1AB248" stroke="white" stroke-width="0.4"></path> <path d="M17.6375 60.1338H41.662C41.91 60.1338 42.1477 60.2323 42.323 60.4076C42.4983 60.5829 42.5968 60.8207 42.5968 61.0686C42.5968 61.3165 42.4983 61.5543 42.323 61.7296C42.1477 61.9049 41.91 62.0034 41.662 62.0034H17.6375C17.3895 62.0034 17.1518 61.9049 16.9765 61.7296C16.8012 61.5543 16.7027 61.3165 16.7027 61.0686C16.7027 60.8207 16.8012 60.5829 16.9765 60.4076C17.1518 60.2323 17.3895 60.1338 17.6375 60.1338Z" fill="#1AB248" stroke="white" stroke-width="0.4"></path> <path d="M35.5559 66.4403L35.6974 66.2989L35.5559 66.4403C35.7312 66.6156 35.8297 66.8534 35.8297 67.1013C35.8297 67.3492 35.7312 67.587 35.5559 67.7623L35.6974 67.9037L35.5559 67.7623C35.3806 67.9376 35.1429 68.0361 34.895 68.0361H17.6375C17.3895 68.0361 17.1518 67.9376 16.9765 67.7623C16.8012 67.587 16.7027 67.3492 16.7027 67.1013C16.7027 66.8534 16.8012 66.6156 16.9765 66.4403C17.1518 66.265 17.3895 66.1666 17.6375 66.1666H34.895C35.1429 66.1666 35.3806 66.265 35.5559 66.4403Z" fill="#1AB248" stroke="white" stroke-width="0.4"></path> <path d="M32.1849 15.4326V15.2326H31.9849H27.77H27.57V15.4326V20.3672V20.7834L27.895 20.5234L29.2936 19.4042L29.2937 19.4042C29.4593 19.2715 29.6652 19.1993 29.8774 19.1993C30.0896 19.1993 30.2955 19.2715 30.4612 19.4042L30.4612 19.4042L31.8599 20.5234L32.1849 20.7834V20.3672V15.4326ZM41.3872 38.6521H41.5872V38.4521V15.4326V15.2326H41.3872H34.2544H34.0544V15.4326V22.7275V22.7276C34.0544 22.9037 34.0047 23.0762 33.911 23.2252C33.8173 23.3743 33.6834 23.4939 33.5247 23.5702C33.366 23.6465 33.189 23.6764 33.014 23.6565C32.8391 23.6366 32.6733 23.5677 32.5358 23.4578L30.0024 21.4314L29.8774 21.3315L29.7525 21.4314L27.2191 23.4578C27.0816 23.5677 26.9158 23.6366 26.7408 23.6565C26.5659 23.6764 26.3889 23.6465 26.2302 23.5702C26.0715 23.4939 25.9376 23.3743 25.8439 23.2252C25.7502 23.0762 25.7005 22.9037 25.7005 22.7276V22.7275V15.4326V15.2326H25.5005H18.3677H18.1677V15.4326V38.4521V38.6521H18.3677H41.3872ZM17.2329 13.3631H42.522C42.7699 13.3631 43.0076 13.4616 43.1829 13.6369C43.3582 13.8122 43.4567 14.0499 43.4567 14.2979V39.5869C43.4567 39.8348 43.3582 40.0726 43.1829 40.2479C43.0076 40.4232 42.7699 40.5217 42.522 40.5217H17.2329C16.985 40.5217 16.7472 40.4232 16.5719 40.2479C16.3966 40.0726 16.2981 39.8348 16.2981 39.5869V14.2979C16.2981 14.0499 16.3966 13.8122 16.5719 13.6369C16.7472 13.4616 16.985 13.3631 17.2329 13.3631Z" fill="#1AB248" stroke="white" stroke-width="0.4"></path> <path d="M60.0808 43.5011V43.7011H60.2808H72.3547C72.6026 43.7011 72.8404 43.7996 73.0157 43.9749C73.191 44.1502 73.2895 44.3879 73.2895 44.6358C73.2895 55.8012 70.8161 62.4601 67.9568 66.4281C65.0988 70.3943 61.8413 71.6913 60.2333 72.1072L60.0834 72.1459V72.3008V75.543C60.0834 75.7909 59.9849 76.0286 59.8096 76.2039C59.6343 76.3792 59.3965 76.4777 59.1486 76.4777H10.6455C10.3976 76.4777 10.1598 76.3792 9.98453 76.2039C9.80923 76.0286 9.71074 75.7909 9.71074 75.543V7.45703C9.71074 7.20912 9.80923 6.97135 9.98453 6.79605C10.1598 6.62075 10.3976 6.52227 10.6455 6.52227H50.4914C50.5021 6.52306 50.5127 6.52507 50.5231 6.52826L50.5461 6.5354L50.5703 6.53683C50.7916 6.54996 51.0007 6.64239 51.1593 6.79716C51.1596 6.79741 51.1599 6.79766 51.1601 6.79792L59.8052 15.443C59.8054 15.4432 59.8057 15.4435 59.8059 15.4437C59.9578 15.5994 60.0499 15.8037 60.0658 16.0206L60.0674 16.0423L60.0736 16.0632C60.0779 16.0775 60.0803 16.0924 60.0808 16.1073V43.5011ZM51.774 10.0553L51.4326 9.71384V10.1967V14.9705V15.1705H51.6326H56.4064H56.8892L56.5478 14.8291L51.774 10.0553ZM11.5803 74.4082V74.6082H11.7803H58.0113H58.2113V74.4082V72.304V72.1493L58.0615 72.1104C56.4527 71.6933 53.1945 70.3954 50.3358 66.4287C47.4758 62.4602 45.002 55.8011 45.002 44.6358C45.002 44.3879 45.1004 44.1502 45.2757 43.9749C45.451 43.7996 45.6888 43.7011 45.9367 43.7011H58.0113H58.2113V43.5011V17.2394V17.0394H58.0113H50.4978C50.2499 17.0394 50.0122 16.9409 49.8369 16.7656C49.6615 16.5903 49.5631 16.3525 49.5631 16.1046V8.5918V8.3918H49.3631H11.7803H11.5803V8.5918V74.4082ZM59.118 70.4268L59.1472 70.4312L59.1765 70.4269C59.8323 70.3301 62.8111 69.7147 65.6677 66.3345C68.5235 62.9553 71.2369 56.8368 71.4115 45.7738L71.4147 45.5706H71.2115H47.0806H46.8774L46.8806 45.7738C47.0549 56.8241 49.7621 62.9413 52.6151 66.3229C55.4689 69.7057 58.4485 70.3274 59.118 70.4268Z" fill="#1AB248" stroke="white" stroke-width="0.4"></path> <path d="M65.0182 51.2939L65.0182 51.2939L57.9573 59.0278L57.832 59.1651L57.686 59.0502L54.4574 56.5102C54.2625 56.3569 54.0148 56.2874 53.7686 56.3168C53.5224 56.3462 53.298 56.4721 53.1447 56.667C52.9914 56.8619 52.9218 57.1096 52.9512 57.3558C52.9806 57.602 53.1066 57.8264 53.3015 57.9797L53.1778 58.1369L53.3015 57.9797L57.3585 61.1711C57.5443 61.3168 57.7783 61.3868 58.0135 61.367C58.2487 61.3472 58.4677 61.239 58.6265 61.0643L58.6268 61.064L66.3976 52.5514L65.0182 51.2939ZM65.0182 51.2939C65.1853 51.1108 65.4183 51.0016 65.6659 50.9903C65.9134 50.979 66.1552 51.0664 66.3383 51.2333M65.0182 51.2939L66.3383 51.2333M66.3383 51.2333C66.5207 51.4004 66.6294 51.633 66.6405 51.8801C66.6516 52.1271 66.5643 52.3685 66.3977 52.5513L66.3383 51.2333Z" fill="#1AB248" stroke="white" stroke-width="0.4"></path> </svg> 