<?xml version="1.0" encoding="UTF-8"?> <!-- Generated by Pixelmator Pro 3.2.1 --> <svg xmlns="http://www.w3.org/2000/svg" xmlns:xlink="http://www.w3.org/1999/xlink" width="88" height="72" viewBox="0 0 88 72"> <path id="Path" fill="none" stroke="#1ab248" stroke-width="2" stroke-linecap="round" stroke-linejoin="round" d="M 86.476501 63.7299 L 1.64453 63.7299 L 10.5974 49.591301 L 77.524696 49.591301 L 86.476501 63.7299 Z"></path> <path id="path1" fill="none" stroke="#1ab248" stroke-width="2" stroke-linecap="round" stroke-linejoin="round" d="M 86.476501 63.728802 C 86.476501 67.732002 85.612999 69.572899 81.637604 69.572899 L 6.64293 69.572899 C 2.66753 69.572899 1.64453 67.732002 1.64453 63.728802"></path> <path id="path2" fill="none" stroke="#1ab248" stroke-width="2" stroke-linecap="round" stroke-linejoin="round" d="M 77.525002 49.5914 L 10.5977 49.5914 L 10.5977 3.861382 C 10.5977 2.638489 11.5822 1.646004 12.7977 1.646004 L 75.324997 1.646004 C 76.540497 1.646004 77.525002 2.638489 77.525002 3.861382 L 77.525002 49.5914 Z"></path> <path id="Path-copy-3" fill="none" stroke="#1ab248" stroke-width="2" stroke-linecap="round" stroke-linejoin="round" d="M 71.447227 45.721298 L 16 45.721298 L 16 7.835373 C 16 6.822243 16.815628 6 17.822632 6 L 69.624596 6 C 70.631599 6 71.447227 6.822243 71.447227 7.835373 L 71.447227 45.721298 Z"></path> <path id="Path-copy-2" fill="none" stroke="#1ab248" stroke-width="2" stroke-linecap="round" stroke-linejoin="round" d="M 43.958099 11.748299 C 51.120499 11.748299 56.927002 17.554798 56.927002 24.717201 C 56.927002 31.879501 51.120499 37.685997 43.958099 37.685997 C 36.795799 37.685997 30.9893 31.879501 30.9893 24.717201 C 30.9893 17.554798 36.795799 11.748299 43.958099 11.748299 Z"></path> <path id="Path-copy" fill="none" stroke="#1ab248" stroke-width="2" stroke-linecap="round" stroke-linejoin="round" d="M 38.179699 23.300499 L 42.9771 28.096802 L 49.737301 21.337601"></path> </svg> 