<?xml version="1.0" encoding="UTF-8"?> <svg xmlns="http://www.w3.org/2000/svg" width="464" height="464" viewBox="0 0 464 464" fill="none"> <path d="M424 416H88V0H312L424 112V416Z" fill="url(#paint0_linear)"></path> <path d="M312 112H424L312 0V112Z" fill="#3A8F35"></path> <path d="M152 352H136C131.582 352 128 348.418 128 344C128 339.582 131.582 336 136 336H152C156.418 336 160 339.582 160 344C160 348.418 156.418 352 152 352Z" fill="white"></path> <path d="M376 352H184C179.582 352 176 348.418 176 344C176 339.582 179.582 336 184 336H376C380.418 336 384 339.582 384 344C384 348.418 380.418 352 376 352Z" fill="white"></path> <path d="M152 304H136C131.582 304 128 300.418 128 296C128 291.582 131.582 288 136 288H152C156.418 288 160 291.582 160 296C160 300.418 156.418 304 152 304Z" fill="white"></path> <path d="M376 304H184C179.582 304 176 300.418 176 296C176 291.582 179.582 288 184 288H376C380.418 288 384 291.582 384 296C384 300.418 380.418 304 376 304Z" fill="white"></path> <path d="M152 256H136C131.582 256 128 252.418 128 248C128 243.582 131.582 240 136 240H152C156.418 240 160 243.582 160 248C160 252.418 156.418 256 152 256Z" fill="white"></path> <path d="M376 256H184C179.582 256 176 252.418 176 248C176 243.582 179.582 240 184 240H376C380.418 240 384 243.582 384 248C384 252.418 380.418 256 376 256Z" fill="white"></path> <path d="M152 208H136C131.582 208 128 204.418 128 200C128 195.582 131.582 192 136 192H152C156.418 192 160 195.582 160 200C160 204.418 156.418 208 152 208Z" fill="white"></path> <path d="M376 208H184C179.582 208 176 204.418 176 200C176 195.582 179.582 192 184 192H376C380.418 192 384 195.582 384 200C384 204.418 380.418 208 376 208Z" fill="white"></path> <path d="M152 160H136C131.582 160 128 156.418 128 152C128 147.582 131.582 144 136 144H152C156.418 144 160 147.582 160 152C160 156.418 156.418 160 152 160Z" fill="white"></path> <path d="M376 160H184C179.582 160 176 156.418 176 152C176 147.582 179.582 144 184 144H376C380.418 144 384 147.582 384 152C384 156.418 380.418 160 376 160Z" fill="white"></path> <path d="M136 72H184V120H136V72Z" fill="white"></path> <defs> <linearGradient id="paint0_linear" x1="95.5" y1="5.90352e-06" x2="424" y2="416" gradientUnits="userSpaceOnUse"> <stop stop-color="#AAC722"></stop> <stop offset="1" stop-color="#3A8F35"></stop> </linearGradient> </defs> </svg> 