<?xml version="1.0" encoding="UTF-8"?> <svg xmlns="http://www.w3.org/2000/svg" width="71" height="1259" viewBox="0 0 71 1259" fill="none"> <circle cx="35.5" cy="35.5" r="35.5" fill="url(#paint0_radial)"></circle> <line x1="36" y1="84" x2="36" y2="284" stroke="#43972C" stroke-width="2"></line> <circle cx="35.5" cy="332.5" r="35.5" fill="url(#paint1_radial)"></circle> <line x1="36" y1="381" x2="36" y2="581" stroke="#43972C" stroke-width="2"></line> <circle cx="35.5" cy="629.5" r="35.5" fill="url(#paint2_radial)"></circle> <line x1="36" y1="678" x2="36" y2="878" stroke="#43972C" stroke-width="2"></line> <circle cx="35.5" cy="926.5" r="35.5" fill="url(#paint3_radial)"></circle> <circle cx="35.5" cy="1223.5" r="35.5" fill="url(#paint4_radial)"></circle> <line x1="36" y1="975" x2="36" y2="1175" stroke="#43972C" stroke-width="2"></line> <path d="M31.6292 56V22.7H25.8692V15.98H39.4292V56H31.6292Z" fill="white"></path> <path d="M19.0292 353L30.7892 339.62C34.6292 335.14 36.9092 332.36 37.6292 331.28C39.1892 328.96 39.9692 326.82 39.9692 324.86C39.9692 323.06 39.3892 321.6 38.2292 320.48C37.1092 319.36 35.7092 318.8 34.0292 318.8C32.1092 318.8 30.5892 319.46 29.4692 320.78C28.3492 322.06 27.7492 323.62 27.6692 325.46H19.6292C19.7892 321.42 21.1692 318.18 23.7692 315.74C26.3692 313.3 29.6692 312.08 33.6692 312.08C38.0692 312.08 41.5092 313.34 43.9892 315.86C46.5092 318.38 47.7692 321.36 47.7692 324.8C47.7692 326.72 47.3292 328.64 46.4492 330.56C45.5692 332.48 44.7292 333.94 43.9292 334.94C43.1292 335.9 41.9892 337.18 40.5092 338.78L33.6092 346.28H48.0692V353H19.0292Z" fill="white"></path> <path d="M28.3292 620.42H21.0092C21.3692 616.86 22.7492 614.08 25.1492 612.08C27.5492 610.08 30.5092 609.08 34.0292 609.08C37.8692 609.08 40.9092 610.08 43.1492 612.08C45.4292 614.08 46.5692 616.76 46.5692 620.12C46.5692 624 45.0292 626.8 41.9492 628.52C46.0292 630.2 48.0692 633.38 48.0692 638.06C48.0692 642.06 46.7092 645.2 43.9892 647.48C41.3092 649.76 37.9092 650.9 33.7892 650.9C29.8692 650.9 26.5692 649.78 23.8892 647.54C21.2092 645.26 19.7092 642.24 19.3892 638.48H27.1892C27.4292 640.2 28.1292 641.58 29.2892 642.62C30.4492 643.66 31.9692 644.18 33.8492 644.18C35.9292 644.18 37.5092 643.56 38.5892 642.32C39.7092 641.04 40.2692 639.54 40.2692 637.82C40.2692 636.14 39.7092 634.68 38.5892 633.44C37.5092 632.2 35.8492 631.58 33.6092 631.58H32.5892V625.94H33.6692C35.4692 625.94 36.8292 625.42 37.7492 624.38C38.6692 623.3 39.1292 622 39.1292 620.48C39.1292 618.88 38.6492 617.6 37.6892 616.64C36.7292 615.68 35.4492 615.2 33.8492 615.2C32.3692 615.2 31.0892 615.66 30.0092 616.58C28.9692 617.5 28.4092 618.78 28.3292 620.42Z" fill="white"></path> <path d="M46.1492 906.98V933.2H50.8292V939.44H46.1492V947H38.8292V939.44H19.2692V935.96L39.1292 906.98H46.1492ZM28.5092 933.2H38.8292V917.96L28.5092 933.2Z" fill="white"></path> <path d="M46.2692 1203.98V1210.7H32.9492L31.5092 1217C32.5492 1216.84 33.4492 1216.76 34.2092 1216.76C38.4892 1216.76 41.9292 1218.1 44.5292 1220.78C46.8892 1223.18 48.0692 1226.38 48.0692 1230.38C48.0692 1234.62 46.7092 1238.1 43.9892 1240.82C41.2692 1243.54 37.6092 1244.9 33.0092 1244.9C29.5292 1244.9 26.6492 1244.34 24.3692 1243.22C22.6492 1242.38 21.0292 1241.24 19.5092 1239.8L22.0892 1233.08C23.2492 1234.64 24.6292 1235.84 26.2292 1236.68C28.0692 1237.68 30.0092 1238.18 32.0492 1238.18C34.6092 1238.18 36.6492 1237.38 38.1692 1235.78C39.5692 1234.3 40.2692 1232.36 40.2692 1229.96C40.2692 1227.68 39.4892 1225.84 37.9292 1224.44C36.3692 1223.08 34.2892 1222.4 31.6892 1222.4C28.8092 1222.4 25.9292 1223.26 23.0492 1224.98L27.7892 1203.98H46.2692Z" fill="white"></path> <defs> <radialGradient id="paint0_radial" cx="0" cy="0" r="1" gradientUnits="userSpaceOnUse" gradientTransform="translate(17.2016 24.7634) rotate(35.1769) scale(58.615)"> <stop stop-color="#A8C61F"></stop> <stop offset="0.368414" stop-color="#6EAB26"></stop> <stop offset="1" stop-color="#33902E"></stop> </radialGradient> <radialGradient id="paint1_radial" cx="0" cy="0" r="1" gradientUnits="userSpaceOnUse" gradientTransform="translate(17.2016 321.763) rotate(35.1769) scale(58.615)"> <stop stop-color="#A8C61F"></stop> <stop offset="0.368414" stop-color="#6EAB26"></stop> <stop offset="1" stop-color="#33902E"></stop> </radialGradient> <radialGradient id="paint2_radial" cx="0" cy="0" r="1" gradientUnits="userSpaceOnUse" gradientTransform="translate(17.2016 618.763) rotate(35.1769) scale(58.615)"> <stop stop-color="#A8C61F"></stop> <stop offset="0.368414" stop-color="#6EAB26"></stop> <stop offset="1" stop-color="#33902E"></stop> </radialGradient> <radialGradient id="paint3_radial" cx="0" cy="0" r="1" gradientUnits="userSpaceOnUse" gradientTransform="translate(17.2016 915.763) rotate(35.1769) scale(58.615)"> <stop stop-color="#A8C61F"></stop> <stop offset="0.368414" stop-color="#6EAB26"></stop> <stop offset="1" stop-color="#33902E"></stop> </radialGradient> <radialGradient id="paint4_radial" cx="0" cy="0" r="1" gradientUnits="userSpaceOnUse" gradientTransform="translate(17.2016 1212.76) rotate(35.1769) scale(58.615)"> <stop stop-color="#A8C61F"></stop> <stop offset="0.368414" stop-color="#6EAB26"></stop> <stop offset="1" stop-color="#33902E"></stop> </radialGradient> </defs> </svg> 