<?xml version="1.0" encoding="UTF-8"?> <svg xmlns="http://www.w3.org/2000/svg" width="512" height="512" viewBox="0 0 512 512" fill="none"> <g clip-path="url(#clip0)"> <path d="M258.913 112.224L349.681 202.952C352.999 206.268 357.497 208.131 362.188 208.131H491.188V449.562H20.813V208.13H149.813C154.504 208.13 159.002 206.267 162.32 202.951L253.088 112.223C254.696 110.615 257.304 110.615 258.913 112.224V112.224Z" fill="#EAB14D"></path> <path d="M362.187 208.13C357.496 208.13 352.998 206.267 349.68 202.951L258.913 112.223C257.304 110.615 254.696 110.615 253.087 112.223L162.32 202.951C159.002 206.267 154.504 208.13 149.813 208.13H20.813V231.024H149.854C160.695 231.024 170.889 226.802 178.552 219.137L248.642 149.047C252.706 144.983 259.295 144.983 263.359 149.047L333.448 219.136C341.113 226.802 351.306 231.024 362.147 231.024H457.887C463.634 231.024 468.294 235.683 468.294 241.431V449.561H491.188V208.13H362.187Z" fill="#E7A52E"></path> <path d="M243.491 71.783C250.4 64.874 261.601 64.874 268.509 71.783L369.474 172.748H491.186L442.112 40.623C439.083 32.468 431.301 27.057 422.601 27.057H89.399C80.699 27.057 72.917 32.468 69.888 40.623L20.813 172.748H142.525L243.491 71.783Z" fill="#8B5E5E"></path> <path d="M442.112 40.623C439.083 32.468 431.301 27.057 422.601 27.057H391.381C400.081 27.057 407.862 32.468 410.892 40.623L459.967 172.748H491.187L442.112 40.623Z" fill="#614C4C"></path> <path d="M512 197.724C512 203.471 507.341 208.13 501.594 208.13H362.146C357.454 208.13 352.954 206.266 349.637 202.949L258.914 112.226C257.305 110.617 254.696 110.617 253.086 112.226L162.363 202.949C159.046 206.267 154.546 208.13 149.854 208.13H10.407C4.659 208.13 0 203.471 0 197.724V183.155C0 177.408 4.659 172.749 10.406 172.749H142.525L243.491 71.7831C250.4 64.8741 261.601 64.8741 268.509 71.7831L369.474 172.748H501.593C507.34 172.748 511.999 177.407 511.999 183.155V197.724H512Z" fill="#E7ECF6"></path> <path d="M501.594 172.748H466.212C471.959 172.748 476.618 177.407 476.618 183.154V197.723C476.618 203.47 471.959 208.129 466.212 208.129H501.594C507.341 208.129 512 203.47 512 197.723V183.154C512 177.407 507.341 172.748 501.594 172.748Z" fill="#D8E2F1"></path> <path d="M352.78 295.44V389.203H456.845V295.44C456.845 289.75 452.233 285.138 446.543 285.138H363.082C357.393 285.138 352.78 289.75 352.78 295.44V295.44Z" fill="#9DC6FB"></path> <path d="M352.78 389.203V412.202C352.78 417.892 357.392 422.504 363.082 422.504H446.543C452.233 422.504 456.845 417.892 456.845 412.202V389.203H352.78Z" fill="#AA8080"></path> <path d="M159.22 295.44V389.203H55.154V295.44C55.154 289.75 59.766 285.138 65.456 285.138H148.917C154.607 285.138 159.22 289.75 159.22 295.44V295.44Z" fill="#9DC6FB"></path> <path d="M159.22 389.203V412.202C159.22 417.892 154.608 422.504 148.918 422.504H65.456C59.766 422.504 55.154 417.892 55.154 412.202V389.203H159.22Z" fill="#AA8080"></path> <path d="M314.277 295.435V449.56H197.723V385.483L203.018 377.757L197.723 370.031V295.436C197.723 289.746 202.335 285.134 208.025 285.134H303.976C309.665 285.134 314.277 289.746 314.277 295.435Z" fill="#8B5E5E"></path> <path d="M231.024 345.559V324.62C231.024 321.206 233.791 318.439 237.205 318.439H274.794C278.208 318.439 280.975 321.206 280.975 324.62V345.559C280.975 348.973 278.208 351.74 274.794 351.74H237.205C233.792 351.74 231.024 348.972 231.024 345.559V345.559Z" fill="#9DC6FB"></path> <path d="M256 246.634C274.392 246.634 289.301 231.725 289.301 213.333C289.301 194.941 274.392 180.032 256 180.032C237.608 180.032 222.699 194.941 222.699 213.333C222.699 231.725 237.608 246.634 256 246.634Z" fill="#9DC6FB"></path> <path d="M501.698 484.943H10.302C4.612 484.943 0 480.331 0 474.641V459.863C0 454.173 4.612 449.561 10.302 449.561H501.698C507.388 449.561 512 454.173 512 459.863V474.641C512 480.331 507.388 484.943 501.698 484.943Z" fill="#8B5E5E"></path> <path d="M476.618 449.561V484.943H501.698C507.388 484.943 512 480.331 512 474.641V459.863C512 454.173 507.388 449.561 501.698 449.561H476.618Z" fill="#614C4C"></path> <path d="M456.846 329.444H412.539V285.138H397.086V329.444H352.781V344.897H397.086V389.203H412.539V344.897H456.846V329.444Z" fill="#80B4FB"></path> <path d="M159.22 329.444H159.219H114.914V285.138H99.461V329.444H55.154V344.897H99.461V389.203H114.914V344.897H159.219H159.22V329.444Z" fill="#80B4FB"></path> <path d="M197.723 370.03H216.455C220.723 370.03 224.181 373.489 224.181 377.756C224.181 382.023 220.722 385.482 216.455 385.482H197.723V370.03Z" fill="#FFD064"></path> </g> <defs> <clipPath id="clip0"> <rect width="512" height="512" fill="white"></rect> </clipPath> </defs> </svg> 