<?xml version="1.0" encoding="UTF-8"?> <svg xmlns="http://www.w3.org/2000/svg" width="60" height="60" viewBox="0 0 60 60" fill="none"> <g clip-path="url(#clip0_36_1432)"> <path d="M59.2476 33.25H59.2501V37.5C59.2501 39.8581 57.6821 41.2762 55.9236 41.6515L55.5322 41.7351L55.3837 42.1067C53.7941 46.0841 50.8804 49.4468 47.1244 51.6209L46.7501 51.8376V52.27V52.5C46.7501 56.2208 43.7209 59.25 40.0001 59.25C37.0684 59.25 34.5644 57.3702 33.6344 54.7492L33.4573 54.25H32.9276H27.0701H26.5404L26.3633 54.7492C25.4333 57.3702 22.9293 59.25 19.9976 59.25C16.2768 59.25 13.2476 56.2208 13.2476 52.5V52.3025V51.8692L12.8722 51.6527C6.53129 47.9974 2.80955 41.1226 3.28855 33.7234L3.28857 33.7232C3.4399 31.374 4.03311 29.1422 4.98262 27.1014L5.29701 26.4257L4.62328 26.107C2.33172 25.0232 0.745117 22.6928 0.745117 20C0.745117 16.2792 3.77433 13.25 7.49512 13.25C8.46139 13.25 9.24512 14.0322 9.24512 15C9.24512 15.9678 8.46139 16.75 7.49512 16.75C5.7009 16.75 4.24512 18.2058 4.24512 20C4.24512 21.5983 5.40277 22.9253 6.91985 23.1982L7.34909 23.2754L7.6285 22.9405C11.291 18.5507 16.9115 15.75 23.1601 15.75H36.5676H37.0328L37.2395 15.3332C38.9598 11.8645 42.182 9.40574 46.5575 8.36491C47.8117 8.07017 49.107 8.35768 50.1227 9.15852C51.1561 9.97703 51.7476 11.1957 51.7476 12.51V21.7975V22.0805L51.9346 22.2929C53.3985 23.9568 54.5682 25.8585 55.3812 27.8933L55.5297 28.2651L55.9213 28.3485C57.6817 28.7238 59.2476 30.1415 59.2476 32.5V33.25ZM55.7501 32.5V31.75H55.0001H54.2651C53.4922 31.75 52.8096 31.2409 52.589 30.4989L52.5889 30.4984C51.8685 28.0795 50.54 25.834 48.7498 23.9966L48.7487 23.9954C48.4284 23.6682 48.2501 23.229 48.2501 22.775V12.51V11.5606L47.3265 11.7804C44.7784 12.3867 41.2452 13.9896 39.8784 18.1109C39.6268 18.8649 38.896 19.3593 38.1665 19.3093L38.1573 19.3086L38.1482 19.3082C38.0429 19.3036 34.2758 19.2899 30.579 19.2772C28.7208 19.2708 26.8679 19.2646 25.4796 19.26L23.803 19.2546L23.3336 19.253L23.2099 19.2526L23.1782 19.2525L23.1702 19.2525L23.1682 19.2525L23.1677 19.2525C23.1676 19.2525 23.1675 19.2525 23.1651 20.0025L23.1675 19.2525H23.1651C14.544 19.2525 7.31926 25.676 6.78419 33.9515C6.36433 40.4305 9.88584 46.4255 15.7531 49.2149C16.3631 49.5051 16.7501 50.1207 16.7501 50.795V52.5025C16.7501 54.2972 18.2089 55.7525 20.0001 55.7525C21.7913 55.7525 23.2501 54.2972 23.2501 52.5025C23.2501 51.5367 24.0343 50.7525 25.0001 50.7525H35.0001C35.9664 50.7525 36.7501 51.5347 36.7501 52.5025C36.7501 54.3002 38.2094 55.7525 40.0001 55.7525C41.7914 55.7525 43.2501 54.2972 43.2501 52.5025V50.7675C43.2501 50.0937 43.6368 49.4798 44.2455 49.1894L44.2457 49.1894C48.2884 47.2598 51.3297 43.7313 52.5889 39.5067L52.589 39.5061C52.8096 38.7641 53.4922 38.255 54.2651 38.255H55.0001H55.7501V37.505V32.505V32.5ZM44.2501 30C44.2501 30.9658 43.4659 31.75 42.5001 31.75C41.5343 31.75 40.7501 30.9658 40.7501 30C40.7501 29.0342 41.5343 28.25 42.5001 28.25C43.4659 28.25 44.2501 29.0342 44.2501 30ZM19.2501 10C19.2501 10.9678 18.4664 11.75 17.5001 11.75C16.5338 11.75 15.7501 10.9678 15.7501 10C15.7501 4.89921 19.8993 0.75 25.0001 0.75C30.1009 0.75 34.2501 4.89921 34.2501 10C34.2501 10.9678 33.4664 11.75 32.5001 11.75C31.5338 11.75 30.7501 10.9678 30.7501 10C30.7501 6.82829 28.1718 4.25 25.0001 4.25C21.8284 4.25 19.2501 6.82829 19.2501 10Z" fill="#1AB248" stroke="white" stroke-width="1.5"></path> </g> <defs> <clipPath id="clip0_36_1432"> <rect width="60" height="60" fill="white"></rect> </clipPath> </defs> </svg> 