<?xml version="1.0" encoding="UTF-8"?> <svg xmlns="http://www.w3.org/2000/svg" width="512" height="512" viewBox="0 0 512 512" fill="none"> <path d="M494.345 494.345H17.655V57.379C17.655 54.941 19.631 52.965 22.069 52.965H489.931C492.369 52.965 494.345 54.941 494.345 57.379V494.345Z" fill="#C5C5C5"></path> <path d="M494.345 414.9H17.655V485.52H494.345V414.9Z" fill="#A3A3A3"></path> <path d="M494.345 211.102C492.536 211.552 490.675 211.862 488.727 211.862C475.874 211.862 465.454 201.442 465.454 188.589C465.454 201.441 455.034 211.862 442.181 211.862C429.328 211.862 418.908 201.442 418.908 188.589C418.908 201.441 408.489 211.862 395.635 211.862C382.782 211.862 372.362 201.442 372.362 188.589C372.362 201.441 361.942 211.862 349.089 211.862C336.236 211.862 325.816 201.442 325.816 188.589C325.816 201.441 315.396 211.862 302.543 211.862C289.69 211.862 279.27 201.442 279.27 188.589C279.27 201.441 268.851 211.862 255.997 211.862C243.143 211.862 232.724 201.442 232.724 188.589C232.724 201.441 222.304 211.862 209.451 211.862C196.598 211.862 186.178 201.442 186.178 188.589C186.178 201.441 175.759 211.862 162.905 211.862C150.052 211.862 139.632 201.442 139.632 188.589C139.632 201.441 129.212 211.862 116.359 211.862C103.506 211.862 93.086 201.442 93.086 188.589C93.086 201.441 82.666 211.862 69.813 211.862C56.96 211.862 46.54 201.442 46.54 188.589C46.54 201.441 36.121 211.862 23.267 211.862C21.319 211.862 19.458 211.552 17.649 211.102V228.95C19.503 229.207 21.343 229.518 23.267 229.518C31.906 229.518 39.928 226.828 46.54 222.241C53.154 226.828 61.175 229.517 69.815 229.517C78.454 229.517 86.476 226.827 93.088 222.24C99.7 226.827 107.722 229.517 116.361 229.517C125 229.517 133.022 226.827 139.634 222.24C146.246 226.827 154.268 229.517 162.907 229.517C171.546 229.517 179.568 226.827 186.18 222.24C192.792 226.827 200.814 229.517 209.453 229.517C218.092 229.517 226.114 226.827 232.726 222.24C239.337 226.828 247.359 229.517 255.998 229.517C264.637 229.517 272.659 226.827 279.271 222.24C285.883 226.827 293.905 229.517 302.544 229.517C311.183 229.517 319.205 226.827 325.817 222.24C332.429 226.827 340.451 229.517 349.09 229.517C357.729 229.517 365.751 226.827 372.363 222.24C378.975 226.827 386.997 229.517 395.636 229.517C404.275 229.517 412.297 226.827 418.909 222.24C425.521 226.827 433.543 229.517 442.182 229.517C450.822 229.517 458.843 226.827 465.455 222.24C472.067 226.827 480.089 229.517 488.728 229.517C490.651 229.517 492.492 229.207 494.346 228.949V211.102H494.345Z" fill="#A3A3A3"></path> <path d="M308.963 264.83H61.793V441.38H308.963V264.83Z" fill="#B4E1FA"></path> <path d="M450.21 264.83H344.28V441.38H450.21V264.83Z" fill="#B4E1FA"></path> <path d="M450.21 264.83H344.28V291.313H450.21V264.83Z" fill="#A0D2F0"></path> <path d="M450.207 347.219L388.414 264.828H370.759L450.207 370.759V347.219Z" fill="#DAF0FD"></path> <path d="M353.103 264.828H344.276V300.138L450.207 441.379V394.298L353.103 264.828Z" fill="#A0D2F0"></path> <path d="M408.276 291.31L388.414 264.828H370.759L390.621 291.31H408.276Z" fill="#B4E1FA"></path> <path d="M282.483 441.379H264.828L132.414 264.828H150.069L282.483 441.379Z" fill="#DAF0FD"></path> <path d="M247.172 441.379H211.862L79.448 264.828H114.759L247.172 441.379Z" fill="#A0D2F0"></path> <path d="M308.963 264.83H61.793V291.313H308.963V264.83Z" fill="#A0D2F0"></path> <path d="M169.931 291.31L150.069 264.828H132.414L152.276 291.31H169.931Z" fill="#B4E1FA"></path> <path d="M209.454 211.862C196.601 211.862 186.181 201.442 186.181 188.589V167.724H232.727V188.589C232.727 201.442 222.307 211.862 209.454 211.862Z" fill="#027923"></path> <path d="M302.546 211.862C289.693 211.862 279.273 201.442 279.273 188.589V167.724H325.819V188.589C325.818 201.442 315.399 211.862 302.546 211.862Z" fill="#027923"></path> <path d="M116.364 211.862C103.511 211.862 93.091 201.442 93.091 188.589V167.724H139.637V188.589C139.636 201.442 129.217 211.862 116.364 211.862Z" fill="#027923"></path> <path d="M23.273 211.862C10.42 211.862 0 201.442 0 188.589V167.724H46.546V188.589C46.546 201.442 36.126 211.862 23.273 211.862Z" fill="#027923"></path> <path d="M395.636 211.862C382.783 211.862 372.363 201.442 372.363 188.589V167.724H418.909V188.589C418.909 201.442 408.49 211.862 395.636 211.862Z" fill="#027923"></path> <path d="M162.909 211.862C150.056 211.862 139.636 201.442 139.636 188.589V167.724H186.182V188.589C186.182 201.442 175.763 211.862 162.909 211.862Z" fill="white"></path> <path d="M349.091 211.862C336.238 211.862 325.818 201.442 325.818 188.589V167.724H372.364V188.589C372.364 201.442 361.944 211.862 349.091 211.862Z" fill="white"></path> <path d="M488.727 211.862C475.874 211.862 465.454 201.442 465.454 188.589V167.724H512V188.589C512 201.442 501.58 211.862 488.727 211.862Z" fill="#027923"></path> <path d="M442.182 211.862C429.329 211.862 418.909 201.442 418.909 188.589V167.724H465.455V188.589C465.454 201.442 455.034 211.862 442.182 211.862Z" fill="white"></path> <path d="M69.818 211.862C56.965 211.862 46.545 201.442 46.545 188.589V167.724H93.091V188.589C93.091 201.442 82.671 211.862 69.818 211.862Z" fill="white"></path> <path d="M256 211.862C243.147 211.862 232.727 201.442 232.727 188.589V167.724H279.273V188.589C279.273 201.442 268.853 211.862 256 211.862Z" fill="white"></path> <path d="M232.727 167.724H186.182L190.997 97.103H234.333L232.727 167.724Z" fill="#03A13B"></path> <path d="M325.818 167.724H279.273L277.667 97.103H321.003L325.818 167.724Z" fill="#03A13B"></path> <path d="M139.636 167.724H93.091L104.326 97.103H147.661L139.636 167.724Z" fill="#03A13B"></path> <path d="M46.546 167.724H0L17.655 97.103H60.991L46.546 167.724Z" fill="#03A13B"></path> <path d="M418.909 167.724H372.364L364.339 97.103H407.674L418.909 167.724Z" fill="#03A13B"></path> <path d="M186.182 167.724H139.636L147.661 97.103H190.997L186.182 167.724Z" fill="white"></path> <path d="M372.364 167.724H325.818L321.003 97.103H364.339L372.364 167.724Z" fill="white"></path> <path d="M512 167.724H465.454L451.009 97.103H494.345L512 167.724Z" fill="#03A13B"></path> <path d="M465.454 167.724H418.909L407.674 97.103H451.009L465.454 167.724Z" fill="white"></path> <path d="M93.091 167.724H46.546L60.991 97.103H104.326L93.091 167.724Z" fill="white"></path> <path d="M279.273 167.724H232.727L234.333 97.103H277.667L279.273 167.724Z" fill="white"></path> <path d="M300.138 273.655V432.552H70.621V273.655H300.138ZM308.966 256H61.793C56.918 256 52.965 259.953 52.965 264.828V441.38C52.965 446.255 56.918 450.208 61.793 450.208H308.965C313.84 450.208 317.793 446.255 317.793 441.38V264.828C317.793 259.953 313.841 256 308.966 256Z" fill="#777777"></path> <path d="M450.207 256H344.276C339.401 256 335.448 259.953 335.448 264.828V485.518H459.034V264.828C459.034 259.953 455.082 256 450.207 256ZM441.379 432.552H353.103V273.655H441.379V432.552Z" fill="#777777"></path> <path d="M397.241 97.103H114.759C105.008 97.103 97.104 89.199 97.104 79.448V26.483C97.104 16.732 105.008 8.828 114.759 8.828H397.242C406.993 8.828 414.897 16.732 414.897 26.483V79.449C414.897 89.199 406.993 97.103 397.241 97.103Z" fill="#AFB9D2"></path> <path d="M392.828 79.448H119.172C116.734 79.448 114.758 77.472 114.758 75.034V30.897C114.758 28.459 116.734 26.483 119.172 26.483H392.827C395.265 26.483 397.241 28.459 397.241 30.897V75.035C397.241 77.472 395.265 79.448 392.828 79.448Z" fill="#C5C5C5"></path> <path d="M119.172 79.448H392.827C395.265 79.448 397.241 77.472 397.241 75.034V57.379C397.241 59.817 395.265 61.793 392.827 61.793H119.172C116.734 61.793 114.758 59.817 114.758 57.379V75.034C114.759 77.472 116.735 79.448 119.172 79.448Z" fill="#A3A3A3"></path> <path d="M507.586 503.172H4.414C1.976 503.172 0 501.196 0 498.758V489.93C0 487.492 1.976 485.516 4.414 485.516H507.586C510.024 485.516 512 487.492 512 489.93V498.758C512 501.196 510.024 503.172 507.586 503.172Z" fill="#8F96AC"></path> </svg> 