<?xml version="1.0" encoding="UTF-8"?> <svg xmlns="http://www.w3.org/2000/svg" width="60" height="60" viewBox="0 0 60 60" fill="none"> <g clip-path="url(#clip0_36_1428)"> <path d="M41.5154 12.6511L41.6385 13.25H42.25L47.4991 13.25C47.4994 13.25 47.4996 13.25 47.4999 13.25C47.4999 13.25 47.5 13.25 47.5 13.25C50.6151 13.254 53.6014 14.4932 55.8041 16.6959C58.007 18.8988 59.2463 21.8855 59.25 25.0009L59.25 37.498C59.25 37.4985 59.25 37.4989 59.25 37.4994C59.2441 39.5694 58.5441 41.5777 57.2618 43.2028C55.9793 44.8283 54.1885 45.9765 52.1761 46.4636L51.4811 46.6318L51.616 47.334C51.7057 47.8014 51.7523 48.276 51.755 48.752C51.7545 50.873 50.9117 52.907 49.4119 54.4069C47.9116 55.9072 45.8767 56.75 43.755 56.75C41.6333 56.75 39.5984 55.9072 38.0981 54.4069C36.5986 52.9074 35.7559 50.8739 35.755 48.7534C35.7587 48.3722 35.79 47.9919 35.8486 47.6153L35.9832 46.75H35.1075H24.9025H24.0302L24.161 47.6124C24.3355 48.7633 24.2567 49.9383 23.9302 51.0556C23.6038 52.1728 23.0374 53.2054 22.2707 54.0812C21.504 54.957 20.5554 55.6549 19.4912 56.1263C18.4269 56.5977 17.2726 56.8312 16.1088 56.8104C14.945 56.7897 13.7997 56.5152 12.7529 56.0062L12.425 56.6807L12.7529 56.0062C11.7062 55.4972 10.7831 54.7659 10.0481 53.8633C9.31305 52.9608 8.78386 51.9087 8.49741 50.7805C8.21096 49.6523 8.17415 48.4752 8.38955 47.3313L8.52145 46.6308L7.82856 46.4635C5.81528 45.9773 4.02342 44.8295 2.73999 43.2039C1.45677 41.5786 0.756045 39.5697 0.75 37.4989V15.0005C0.753848 11.8852 1.99307 8.89869 4.19588 6.69588C6.39869 4.49307 9.38523 3.25385 12.5005 3.25H29.9995C32.7073 3.25353 35.3312 4.19042 37.4288 5.90279C39.5266 7.61526 40.9699 9.99859 41.5154 12.6511ZM55 28.25H55.75V27.5V25C55.75 22.812 54.8808 20.7135 53.3336 19.1664C51.7865 17.6192 49.688 16.75 47.5 16.75H42.5H41.75V17.5V27.5V28.25H42.5H55ZM37.5 43.25H38.25V42.5V15C38.25 12.812 37.3808 10.7135 35.8336 9.16637C34.2865 7.61919 32.188 6.75 30 6.75H12.5C10.312 6.75 8.21354 7.61919 6.66637 9.16637C5.11919 10.7135 4.25 12.812 4.25 15V37.5C4.25 39.025 4.8558 40.4875 5.93414 41.5659C7.01247 42.6442 8.475 43.25 10 43.25H37.5ZM20.75 48.75L20.75 48.7473C20.7481 48.2296 20.6527 47.7166 20.4683 47.2329L20.2842 46.75H19.7675H12.7325H12.2158L12.0317 47.2328C11.8473 47.7166 11.7519 48.2296 11.75 48.7473V48.75C11.75 49.9435 12.2241 51.0881 13.068 51.932C13.9119 52.7759 15.0565 53.25 16.25 53.25C17.4435 53.25 18.5881 52.7759 19.432 51.932C20.2759 51.0881 20.75 49.9435 20.75 48.75ZM39.25 48.7481V48.75C39.25 49.9435 39.7241 51.0881 40.568 51.932C41.4119 52.7759 42.5565 53.25 43.75 53.25C44.9435 53.25 46.0881 52.7759 46.932 51.932C47.7759 51.0881 48.25 49.9435 48.25 48.75L48.25 48.7481C48.2487 48.2299 48.1531 47.7162 47.968 47.2321L47.7837 46.75H47.2675H40.2325H39.7163L39.532 47.2321C39.3469 47.7162 39.2513 48.2299 39.25 48.7481ZM41.75 42.5V43.25H42.5H50C51.525 43.25 52.9875 42.6442 54.0659 41.5659C55.1442 40.4875 55.75 39.025 55.75 37.5V32.5V31.75H55H42.5H41.75V32.5V42.5Z" fill="#1AB248" stroke="white" stroke-width="1.5"></path> </g> <defs> <clipPath id="clip0_36_1428"> <rect width="60" height="60" fill="white"></rect> </clipPath> </defs> </svg> 