<?xml version="1.0" encoding="UTF-8"?> <svg xmlns="http://www.w3.org/2000/svg" width="60" height="60" viewBox="0 0 60 60" fill="none"> <g clip-path="url(#clip0_36_1430)"> <path d="M31.3276 32.5209L31.3325 32.5165C33.7425 30.3607 36.725 28.9485 39.9199 28.4504C43.1148 27.9523 46.3856 28.3896 49.3375 29.7096C52.2893 31.0295 54.796 33.1757 56.5549 35.8889C58.3139 38.6021 59.2499 41.7665 59.25 45C59.25 45.4641 59.0656 45.9093 58.7374 46.2374C58.4093 46.5656 57.9641 46.75 57.5 46.75C57.0359 46.75 56.5907 46.5656 56.2626 46.2374C55.9344 45.9093 55.75 45.4641 55.75 45C55.75 42.4423 55.0097 39.9393 53.6184 37.7931C52.2272 35.6468 50.2445 33.9491 47.9097 32.9049C45.5749 31.8606 42.9878 31.5144 40.4606 31.9081C37.9334 32.3018 35.5741 33.4185 33.6675 35.1234L33.6675 35.1234L33.6621 35.1284C33.4913 35.2842 33.2913 35.4046 33.0737 35.4827C32.8561 35.5607 32.6252 35.5949 32.3943 35.5832C32.1634 35.5716 31.9371 35.5142 31.7285 35.4146C31.5199 35.315 31.3331 35.175 31.1789 35.0028C31.0247 34.8305 30.9062 34.6295 30.8301 34.4111C30.7541 34.1928 30.722 33.9616 30.7359 33.7308C30.7497 33.5001 30.8091 33.2743 30.9106 33.0667C31.0122 32.859 31.1539 32.6735 31.3276 32.5209L31.3276 32.5209ZM18.7492 31.75C16.6728 31.7498 14.643 31.134 12.9165 29.9804C11.1898 28.8267 9.84398 27.1868 9.04927 25.2682C8.25455 23.3496 8.04661 21.2384 8.45175 19.2016C8.8569 17.1648 9.85693 15.2938 11.3254 13.8254C12.7938 12.3569 14.6648 11.3569 16.7016 10.9518C18.7384 10.5466 20.8496 10.7545 22.7682 11.5493C24.6868 12.344 26.3267 13.6898 27.4804 15.4165C28.634 17.143 29.2498 19.1728 29.25 21.2492C29.2469 24.0332 28.1396 26.7024 26.171 28.671C24.2023 30.6396 21.5332 31.7469 18.7492 31.75ZM18.75 14.25C17.3655 14.25 16.0122 14.6605 14.861 15.4297C13.7099 16.1989 12.8127 17.2921 12.2828 18.5712C11.753 19.8503 11.6144 21.2578 11.8845 22.6156C12.1546 23.9735 12.8213 25.2208 13.8003 26.1998C14.7792 27.1787 16.0265 27.8454 17.3844 28.1155C18.7422 28.3856 20.1497 28.247 21.4288 27.7172C22.7079 27.1873 23.8011 26.2901 24.5703 25.139C25.3395 23.9879 25.75 22.6345 25.75 21.25C25.75 19.3935 25.0125 17.613 23.6997 16.3003C22.387 14.9875 20.6065 14.25 18.75 14.25ZM36.75 56.25V57.5C36.75 57.9641 36.5656 58.4093 36.2374 58.7374C35.9093 59.0656 35.4641 59.25 35 59.25C34.5359 59.25 34.0907 59.0656 33.7626 58.7374C33.4344 58.4093 33.25 57.9641 33.25 57.5V56.25C33.25 52.4044 31.7223 48.7162 29.003 45.997C26.2838 43.2777 22.5956 41.75 18.75 41.75C14.9044 41.75 11.2162 43.2777 8.49695 45.997C5.77767 48.7162 4.25 52.4044 4.25 56.25V57.5C4.25 57.9641 4.06563 58.4093 3.73744 58.7374C3.40925 59.0656 2.96413 59.25 2.5 59.25C2.03587 59.25 1.59075 59.0656 1.26256 58.7374C0.934374 58.4093 0.75 57.9641 0.75 57.5V56.25C0.75 51.4761 2.64642 46.8977 6.02208 43.5221C9.39773 40.1464 13.9761 38.25 18.75 38.25C23.5239 38.25 28.1023 40.1464 31.4779 43.5221C34.8536 46.8977 36.75 51.4761 36.75 56.25ZM43.7492 21.75C41.6727 21.7498 39.643 21.134 37.9165 19.9804C36.1898 18.8267 34.844 17.1868 34.0493 15.2682C33.2545 13.3496 33.0466 11.2384 33.4518 9.20156C33.8569 7.16476 34.8569 5.29384 36.3254 3.82538C37.7938 2.35693 39.6648 1.3569 41.7015 0.95176C43.7383 0.546615 45.8496 0.75455 47.7682 1.54927C49.6868 2.34399 51.3267 3.6898 52.4804 5.41652C53.634 7.14301 54.2498 9.17275 54.25 11.2492C54.2469 14.0332 53.1396 16.7024 51.171 18.671C49.2024 20.6396 46.5332 21.7469 43.7492 21.75ZM43.75 4.25C42.3655 4.25 41.0121 4.66055 39.861 5.42972C38.7099 6.19889 37.8127 7.29214 37.2828 8.57122C36.753 9.8503 36.6144 11.2578 36.8845 12.6156C37.1546 13.9735 37.8213 15.2208 38.8003 16.1998C39.7792 17.1787 41.0265 17.8454 42.3844 18.1155C43.7422 18.3856 45.1497 18.247 46.4288 17.7172C47.7079 17.1873 48.8011 16.2901 49.5703 15.139C50.3395 13.9879 50.75 12.6345 50.75 11.25C50.75 9.39349 50.0125 7.61301 48.6997 6.30026C47.387 4.9875 45.6065 4.25 43.75 4.25Z" fill="#1AB248" stroke="white" stroke-width="1.5"></path> </g> <defs> <clipPath id="clip0_36_1430"> <rect width="60" height="60" fill="white"></rect> </clipPath> </defs> </svg> 